<svg width="317" height="312" viewBox="0 0 317 312" fill="none" xmlns="http://www.w3.org/2000/svg">
<path d="M0.5 252.625V59.0567L107.643 0.840698V59.0567H89.7857V29.9487L22.8214 59.0567V252.625L89.7857 284.644V252.625H107.643V310.841L0.5 252.625Z" fill="white" stroke="white"/>
<path d="M36.2134 207.822V102.405L95.7372 70.7002V102.405H85.8166V86.5524L48.6142 102.405V207.822L85.8166 225.259V207.822H95.7372V239.526L36.2134 207.822Z" fill="#FF0000" stroke="black"/>
<path d="M74.1639 184.841C74.1639 184.235 74.2986 183.763 74.5679 183.427C74.8372 183.09 75.2412 182.888 75.7799 182.821L82.2439 181.407L80.9309 182.518V122.423L82.3449 123.534L74.1639 121.918C74.1639 121.177 74.2649 120.706 74.4669 120.504C74.7362 120.234 75.2076 120.1 75.8809 120.1H91.3339C91.3339 120.706 91.1992 121.177 90.9299 121.514C90.6606 121.783 90.2566 121.985 89.7179 122.12L83.2539 123.534L84.2639 122.322V182.518L83.2539 181.407L114.665 183.225L113.352 184.134L114.867 172.62C115.608 172.62 116.18 172.754 116.584 173.024C116.988 173.293 117.19 173.596 117.19 173.933V184.841H74.1639ZM154.397 186.053C148.809 186.053 143.893 184.672 139.651 181.912C135.409 179.151 132.11 175.414 129.753 170.701C127.397 165.987 126.218 160.702 126.218 154.844C126.218 149.659 127.06 144.878 128.743 140.502C130.427 136.125 132.75 132.321 135.712 129.089C138.742 125.789 142.176 123.231 146.014 121.413C149.92 119.595 154.027 118.686 158.336 118.686C163.925 118.686 168.84 120.066 173.082 122.827C177.324 125.587 180.624 129.324 182.98 134.038C185.337 138.684 186.515 143.902 186.515 149.693C186.515 154.608 185.707 159.288 184.091 163.732C182.543 168.108 180.321 171.98 177.425 175.347C174.53 178.646 171.13 181.272 167.224 183.225C163.319 185.11 159.043 186.053 154.397 186.053ZM157.427 183.225C162.275 183.225 166.585 181.945 170.355 179.387C174.126 176.761 177.089 173.226 179.243 168.782C181.398 164.338 182.475 159.321 182.475 153.733C182.475 143.7 180.051 135.856 175.203 130.2C170.423 124.476 163.723 121.615 155.104 121.615C150.728 121.615 146.62 122.86 142.782 125.352C139.012 127.776 135.948 131.176 133.591 135.553C131.302 139.929 130.157 145.08 130.157 151.006C130.157 161.106 132.548 169.017 137.328 174.741C142.176 180.397 148.876 183.225 157.427 183.225Z" fill="white"/>
<path d="M201.893 184.841C201.893 184.235 202.028 183.763 202.297 183.427C202.567 183.09 202.971 182.888 203.509 182.821L210.175 181.407L208.862 182.518V122.322L209.973 123.534L202.095 121.918C202.095 121.177 202.196 120.706 202.398 120.504C202.6 120.234 203.038 120.1 203.711 120.1H225.628C230.005 120.1 233.607 120.874 236.435 122.423C239.263 123.904 241.351 125.857 242.697 128.281C244.111 130.637 244.818 133.162 244.818 135.856C244.818 139.02 243.909 142.084 242.091 145.047C240.273 147.942 237.614 150.332 234.112 152.218C230.678 154.103 226.403 155.046 221.285 155.046C219.602 155.046 217.818 154.945 215.932 154.743C214.047 154.541 212.465 154.238 211.185 153.834H212.195V182.619L211.084 181.407L220.073 183.023C220.073 183.696 219.972 184.167 219.77 184.437C219.568 184.706 219.097 184.841 218.356 184.841H201.893ZM212.195 153.026L211.185 151.612C212.263 152.083 213.946 152.453 216.235 152.723C218.525 152.925 220.881 153.026 223.305 153.026C227.278 153.026 230.544 152.285 233.102 150.804C235.661 149.322 237.546 147.403 238.758 145.047C240.038 142.623 240.677 140.131 240.677 137.573C240.677 132.657 239.162 128.819 236.132 126.059C233.102 123.298 229.029 121.918 223.911 121.918C221.285 121.918 218.828 122.086 216.538 122.423C214.249 122.692 212.465 122.995 211.185 123.332L212.195 122.12V153.026ZM252.09 185.851C251.08 185.851 249.565 185.009 247.545 183.326C245.525 181.575 243.236 179.218 240.677 176.256C238.119 173.293 235.493 169.926 232.799 166.156C230.173 162.318 227.682 158.345 225.325 154.238L227.446 153.228C230.813 158.48 234.213 163.294 237.647 167.671C241.081 171.98 244.28 175.549 247.242 178.377C250.272 181.205 252.73 182.989 254.615 183.73C254.615 184.201 254.38 184.672 253.908 185.144C253.504 185.615 252.898 185.851 252.09 185.851ZM265.117 184.841C265.117 184.235 265.252 183.763 265.521 183.427C265.79 183.09 266.194 182.888 266.733 182.821L273.197 181.407L271.884 182.518V122.322L272.995 123.534L265.117 121.918C265.117 121.177 265.218 120.706 265.42 120.504C265.689 120.234 266.161 120.1 266.834 120.1H306.022V130.099C305.551 130.099 305.147 129.998 304.81 129.796C304.473 129.526 304.204 129.089 304.002 128.483L301.578 120.807L302.992 121.716L274.106 123.029L275.217 121.716V151.612L274.207 150.905H299.457L298.346 151.511L299.356 144.744C299.895 144.744 300.299 144.811 300.568 144.946C300.905 145.013 301.174 145.316 301.376 145.855V158.177C301.174 158.648 300.905 158.951 300.568 159.086C300.231 159.22 299.827 159.288 299.356 159.288L298.245 152.218L299.457 153.127H274.207L275.217 152.218V182.518L274.207 181.407L306.123 183.225L304.81 184.134L307.335 172.62C308.076 172.62 308.547 172.754 308.749 173.024C309.018 173.293 309.153 173.596 309.153 173.933V184.841H265.117Z" fill="#FF0000"/>
</svg>
